<svg width="20" height="21" viewBox="0 0 20 21" fill="none" xmlns="http://www.w3.org/2000/svg">
<path d="M10 0C11.6569 0 13 1.34315 13 3C13 4.30574 12.1645 5.413 11 5.8252V9H18V15.1738C19.1647 15.5859 20 16.6941 20 18C20 19.6569 18.6569 21 17 21C15.3431 21 14 19.6569 14 18C14 16.6941 14.8353 15.5859 16 15.1738V11H4V15.1738C5.16468 15.5859 6 16.6941 6 18C6 19.6569 4.65685 21 3 21C1.34315 21 0 19.6569 0 18C0 16.6941 0.835321 15.5859 2 15.1738V9H9V5.8252C7.83548 5.413 7 4.30574 7 3C7 1.34315 8.34315 0 10 0ZM3 17C2.44772 17 2 17.4477 2 18C2 18.5523 2.44772 19 3 19C3.55228 19 4 18.5523 4 18C4 17.4477 3.55228 17 3 17ZM17 17C16.4477 17 16 17.4477 16 18C16 18.5523 16.4477 19 17 19C17.5523 19 18 18.5523 18 18C18 17.4477 17.5523 17 17 17ZM10 2C9.44772 2 9 2.44772 9 3C9 3.55228 9.44772 4 10 4C10.5523 4 11 3.55228 11 3C11 2.44772 10.5523 2 10 2Z" fill="currentColor"/>
</svg>
