<svg width="20" height="20" viewBox="0 0 20 20" fill="none" xmlns="http://www.w3.org/2000/svg">
<path d="M14.6973 13.8852C14.9262 13.8921 15.1244 13.9719 15.291 14.1244L16.1875 14.9994C16.3542 15.1522 16.4337 15.3473 16.4268 15.5834C16.4198 15.8193 16.34 16.0204 16.1875 16.1869C16.0208 16.3536 15.8191 16.4369 15.583 16.4369C15.3469 16.4369 15.1528 16.3536 15 16.1869L14.125 15.2914C13.9722 15.1248 13.8955 14.9268 13.8955 14.6977C13.8955 14.4686 13.9722 14.2772 14.125 14.1244C14.2776 13.9581 14.4684 13.8783 14.6973 13.8852Z" fill="currentColor"/>
<path fill-rule="evenodd" clip-rule="evenodd" d="M9.58301 4.77092C9.84685 4.50708 10.1491 4.44843 10.4893 4.59416C10.8295 4.74001 11 5.00045 11 5.37541V14.6664C10.9999 15.0413 10.8294 15.3019 10.4893 15.4477C10.1491 15.5934 9.8468 15.5346 9.58301 15.2709L6.83301 12.5209H6.16699V15.4379C6.16687 15.6738 6.08636 15.8721 5.92676 16.0317C5.76711 16.1911 5.5689 16.2709 5.33301 16.2709C5.09711 16.2708 4.89888 16.1912 4.73926 16.0317C4.57968 15.8721 4.50012 15.6738 4.5 15.4379V12.5209H3.33301C3.09711 12.5208 2.89888 12.4412 2.73926 12.2817C2.57969 12.1221 2.50012 11.9238 2.5 11.6879V8.35393C2.50009 8.11807 2.57973 7.91978 2.73926 7.76018C2.8989 7.60056 3.09706 7.521 3.33301 7.52092H6.83301L9.58301 4.77092ZM7.54199 9.18791H4.16699V10.8539H7.54199L9.33301 12.6459V7.39592L7.54199 9.18791Z" fill="currentColor"/>
<path d="M11.8857 7.03166C12.0315 6.95539 12.1737 6.95823 12.3125 7.04143C12.7429 7.38859 13.0906 7.8263 13.3545 8.35393C13.6183 8.88161 13.75 9.43771 13.75 10.0209C13.75 10.6041 13.6183 11.1565 13.3545 11.6772C13.0906 12.1979 12.743 12.6251 12.3125 12.9584C12.1738 13.0416 12.0314 13.0453 11.8857 12.9692C11.74 12.8928 11.6671 12.7704 11.667 12.6039V7.39592C11.667 7.22934 11.74 7.10804 11.8857 7.03166Z" fill="currentColor"/>
<path d="M18.333 9.16643C18.569 9.16643 18.7671 9.24614 18.9268 9.40569C19.0864 9.56531 19.1659 9.76351 19.166 9.99944C19.166 10.2355 19.0864 10.4335 18.9268 10.5932C18.767 10.7529 18.5691 10.8334 18.333 10.8334H16.666C16.4301 10.8333 16.2319 10.7528 16.0723 10.5932C15.9128 10.4335 15.833 10.2353 15.833 9.99944C15.8331 9.76351 15.9126 9.56531 16.0723 9.40569C16.2319 9.24606 16.4301 9.16652 16.666 9.16643H18.333Z" fill="currentColor"/>
<path d="M15.583 3.57268C15.8191 3.57962 16.0208 3.65921 16.1875 3.81194C16.3541 3.97858 16.4375 4.18036 16.4375 4.41643C16.4375 4.65238 16.3539 4.84671 16.1875 4.99944L15.291 5.87444C15.1244 6.02721 14.9302 6.10393 14.708 6.10393C14.4858 6.10391 14.2916 6.02719 14.125 5.87444C13.9584 5.72173 13.8779 5.53119 13.8848 5.30217C13.8917 5.07301 13.9722 4.87509 14.125 4.70842L15 3.81194C15.1527 3.64553 15.3471 3.56576 15.583 3.57268Z" fill="currentColor"/>
</svg>
